<?xml version="1.0" encoding="utf-8"?>
<!-- Generator: Adobe Illustrator 16.0.0, SVG Export Plug-In . SVG Version: 6.00 Build 0)  -->
<!DOCTYPE svg PUBLIC "-//W3C//DTD SVG 1.1//EN" "http://www.w3.org/Graphics/SVG/1.1/DTD/svg11.dtd">
<svg version="1.1" id="Layer_1" xmlns="http://www.w3.org/2000/svg" xmlns:xlink="http://www.w3.org/1999/xlink" x="0px" y="0px"
	 width="2200px" height="431px" viewBox="0 0 2200 431" enable-background="new 0 0 2200 431" xml:space="preserve">
<g>
	<path fill="#FFFFFF" d="M669.805,273.836c-17.891,17.891-44.009,26.127-80.864,26.127h-38.638l1.433-202.423h38.992
		c33.636,0,57.242,3.923,77.994,22.174c17.891,15.734,28.983,42.173,28.983,75.448C697.705,229.877,686.612,257.023,669.805,273.836
		 M605.039,73.528H492.695V97.54h28.265l-1.428,202.423h-26.837v24.021h100.179c84.438,0,137.753-40.793,137.753-128.812
		C730.627,112.176,679.813,73.528,605.039,73.528"/>
	<path fill="#FFFFFF" d="M1199.581,254.396c0-30.77,0.719-59.992,1.438-91.303h58.046v-24.021h-57.687l1.428-46.734l-30.102,1.718
		l-0.658,45.017h-29.414v24.021h29.033c-0.35,27.396-1.416,81.998-1.416,104.543c0,23.611,0,60.541,51.516,60.541
		c15.035,0,32.198-3.893,41.493-8.557l1.078-24.75c-7.867,3.215-21.466,7.439-36.501,7.439
		C1199.581,302.311,1199.581,280.875,1199.581,254.396"/>
	<path fill="#FFFFFF" d="M1350.457,305.715c-18.971,0-34.705-11.092-34.705-31.85c0-34.713,44.01-34.713,87.658-34.713
		C1403.41,290.568,1369.486,305.715,1350.457,305.715 M1431.316,201.623c0-49.012-25.6-66.564-73.172-66.564
		c-22.545,0-44.418,6.061-64.965,14.308v44.499h27.166v-28.773c13.707-5.721,30.41-6.74,40.773-6.74
		c28.994,0,42.611,12.471,42.611,47.174v13.238c-64.635,0-117.15,2.986-117.15,56.529c0,45.078,36.051,52.945,57.146,52.945
		c32.578,0,50.738-15.016,61.82-44.369h0.719c-1.428,6.85-3.514,21.846-3.514,32.578v7.537h47.943v-24.031h-20.758
		C1429.937,266.707,1431.316,217.717,1431.316,201.623"/>
	<path fill="#FFFFFF" d="M1548.787,216.617c-27.197-4.643-44.709-10.732-44.709-30.76c0-20.168,25.619-28.264,42.203-28.264
		c8.586,0,25.758,1.277,32.547,6.998l0.68,26.328h27.234l-1.438-44.579c-14.297-6.08-42.93-11.192-58.305-11.192
		c-52.955,0-72.643,25.719-72.643,55.412c0,36.131,24.689,44.688,74.07,55.42c20.037,4.293,38.607,10.723,38.607,28.963
		c0,20.527-24.891,30.771-42.191,30.771c-12.162,0-30.771-2.746-41.854-8.107l-0.678-27.436h-27.236l1.438,47.113
		c11.451,6.08,43.289,11.033,63.328,11.033c53.303,0,75.488-26.158,75.488-59.074C1615.33,238.832,1595.65,224.496,1548.787,216.617
		"/>
	<polygon fill="#FFFFFF" points="1778.566,299.963 1693.802,299.963 1695.24,97.55 1721.447,97.55 1721.447,73.519 1635.357,73.519 
		1635.357,97.55 1664.47,97.55 1663.042,299.963 1635.357,299.963 1635.357,323.984 1805.792,323.984 1805.982,262.354 
		1779.734,262.354 	"/>
	<g>
		<path fill="#FFFFFF" d="M1885.623,300.723h-23.252l0.709-94.139h30.061c29.693,0,65.824,6.121,65.824,47.623
			C1958.964,301.072,1916.044,300.723,1885.623,300.723 M1863.798,96.781h30.41c16.453,0,50.449-0.739,50.449,42.191
			c0,37.93-32.197,45.107-63.688,45.107h-17.891L1863.798,96.781z M1926.787,192.646v-0.719c27.396-4.652,48.65-24.32,48.65-57.598
			c0-26.118-12.529-43.989-31.498-52.935c-14.297-6.809-27.895-7.877-52.236-7.877h-87.219V97.55h28.533l-2.115,226.425h72.252
			c44.719,0,88.748-16.113,88.748-69.777C1991.902,213.783,1959.074,192.287,1926.787,192.646"/>
	</g>
	<polygon fill="#FFFFFF" points="815.544,139.072 757.044,139.072 757.044,163.084 786.203,163.084 784.769,299.963 759.98,299.963 
		759.98,323.984 838.248,323.984 838.248,299.963 814.113,299.963 	"/>
	<polygon fill="#FFFFFF" points="1106.35,139.072 1047.855,139.072 1047.855,163.084 1077.013,163.084 1075.58,299.963 
		1050.791,299.963 1050.791,323.984 1129.053,323.984 1129.053,299.963 1104.922,299.963 	"/>
	<polygon fill="#FFFFFF" points="2013.736,139.072 2013.736,163.084 2042.9,163.084 2041.482,299.953 2016.671,299.953 
		2016.671,323.975 2094.945,323.975 2094.945,299.953 2070.814,299.953 2072.232,139.072 	"/>
	<path fill="#FFFFFF" d="M941.033,395.211c-18.076,0-60.977-3.904-60.977-32.27c0-24.1,36.521-32.877,40.064-32.877l48.932,7.1
		c16.299,2.477,31.195,5.561,31.195,21.875C1000.248,384.428,963.726,395.211,941.033,395.211 M885.373,203.748
		c0-26.936,20.916-42.801,49.635-42.801c35.098,0,48.572,24.012,48.572,41.744c0,25.518-19.854,46.096-51.043,46.096
		C906.998,248.787,885.373,229.277,885.373,203.748 M980.054,311.895l-48.932-8.156c-23.053-3.555-30.045-6.031-30.045-15.246
		c0-13.119,24.006-17.752,31.459-17.752c42.895,0,77.285-24.08,77.285-64.865c0-12.729-2.287-26.586-13.26-39.545
		c-1.775-2.088-3.424-3.885-4.906-5.432l31.859,3.533v-25.359l-65.586,1.318l0.07,0.13c-7.033-2.047-15.141-3.435-24.4-3.435
		c-44.678,0-75.658,28.375-75.658,66.312c0,46.445,33.432,58.846,46.316,61.691v0.709c-15.645,3.895-33.432,8.855-33.432,27.645
		c0,17.014,13.189,25.17,27.91,28.375v0.709c-23.922,5.311-46.211,17.361-46.211,45.018c0,35.812,43.186,50,87.154,50
		c45.742,0,89.67-19.141,89.67-61.332C1029.349,326.781,1008.423,316.486,980.054,311.895"/>
	<path fill="#FFFFFF" d="M797.205,73.049c-12.021,0-21.795,9.774-21.795,21.794c0,12.021,9.773,21.795,21.795,21.795
		c12.01,0,21.795-9.774,21.795-21.795C819,82.823,809.214,73.049,797.205,73.049"/>
	<path fill="#FFFFFF" d="M1088.016,73.049c-12.021,0-21.796,9.774-21.796,21.794c0,12.021,9.775,21.795,21.796,21.795
		c12.01,0,21.789-9.774,21.789-21.795C1109.805,82.823,1100.026,73.049,1088.016,73.049"/>
	<path fill="#FFFFFF" d="M2053.902,73.049c-12.021,0-21.805,9.774-21.805,21.794c0,12.021,9.783,21.795,21.805,21.795
		c12.01,0,21.795-9.774,21.795-21.795C2075.697,82.823,2065.912,73.049,2053.902,73.049"/>
</g>
<g>
	<path fill="#E30518" d="M243.103,13.692c-102.759,0-186.069,83.296-186.069,186.06c0,102.765,83.311,186.061,186.069,186.061
		c102.765,0,186.065-83.296,186.065-186.061C429.168,96.988,345.868,13.692,243.103,13.692"/>
	<polygon fill="#FFFFFF" points="168.04,114.141 168.084,114.19 167.99,114.021 	"/>
	<polygon fill="#FFFFFF" points="275.566,149.304 280.093,140.918 288.255,137.264 280.093,132.96 276.005,122.856 271.907,132.531 
		263.75,135.965 271.712,140.697 	"/>
	<polygon fill="#FFFFFF" points="219.511,74.045 221.913,69.593 226.26,67.646 221.913,65.359 219.746,59.988 217.569,65.13 
		213.226,66.967 217.455,69.473 	"/>
	<polygon fill="#FFFFFF" points="225.896,249.962 222.542,257.919 215.802,260.764 222.357,264.647 225.546,271.746 229.26,264.838 
		235.995,261.822 229.26,258.269 	"/>
	<polygon fill="#FFFFFF" points="139.451,172.766 136.66,165.867 133.87,172.467 128.298,174.822 133.724,178.048 136.371,183.918 
		139.451,178.188 145.021,175.701 	"/>
	<g>
		<path fill="#FFFFFF" d="M365.51,300.131c-3.998-4.293-10.348-1.877-16.438-0.08c-5.979,1.777-5.142-4.293-5.142-4.293
			s6.061,2.296,12.665,0c8.995-3.146,10.243-12.879,10.243-12.879c-3.035,5.161-7.737,6.18-7.737,6.18
			c1.553-1.607,1.288-5.281,1.288-5.281c-2.371,5.501-10.009,6.27-14.682,1.747c-1.433-1.388-1.852-3.155-1.737-4.922
			c0.459-3.465,2.127-8.008,6.734-12.62c7.753-7.737,15.49-21.495,11.841-33.546c-3.22-13.438-7.862-22.034-13.763-26.008
			c-6.03-4.952-16.459-8.916-20.322-9.036c-3.979-1.497-15.266,1.938-17.207,2.696c-1.922,0.739-1.827,0.429-1.827,0.429
			s-11.072-18.28-25.799-19.558c-14.711-1.298-21.814,0.749-25.374,0.319c-3.534-0.449-13.104-3.025-15.794-5.382
			c-2.686-2.376-6.665-6.14-8.392-6.998c-1.718-0.858,0.429-7.628,0.215-11.931c-0.215-4.293,2.156-9.126-0.32-14.397
			c-0.459-2.166-0.674-2.806-0.674-3.154c4.498,7.737,9.081,3.284,9.081,3.284s-4.164,0.739-3.959-2.915
			c0.194-3.425-2.166-4.922-2.86-5.87c-0.699-0.929,0.634-3.535-1.188-6.949c-1.816-3.414-0.389-4.643-0.389-4.643
			c3.908,11.461,10.348,6.859,10.348,6.859s-5.182-0.38-5.521-7.318c-0.33-6.949-4.538-8.766-7.158-8.836
			c-1.838-0.05-4.099-1.178-5.272-1.857c-0.299-0.199-0.623-0.398-0.913-0.619c-1.593-1.197-2.92-2.965-4.158-4.522
			c-1.688-2.116-3.64-4.272-5.841-5.87c-1.662-1.208-3.778-1.927-5.735-2.557c-1.019-0.329-2.052-0.668-3.135-0.778
			c-1.318-0.12-2.761-0.149-4.193-0.069c-0.155-1.688-0.724-4.054-2.432-7.089c-3.559-6.28-11.995-5.162-11.995-5.162
			c2.221,0.969,6.884,3.704,5.745,8.077c-1.143,4.413-4.128,4.413-4.128,4.413s2.87-1.617,0.684-6.42
			c-1.787-3.923-6.459-3.165-6.459-3.165s6.234,3.465,1.542,7.688c-2.87,2.606-7.442-5.75-12.689-3.294
			c-4.897,2.306-2.071,7.078-1.952,7.718c-0.389-0.12-0.868-0.2-1.223-0.2l-0.085,0.021l-0.549-0.311
			c-0.465-1.088-1.538-1.856-2.806-1.856l-0.409,0.08l-0.959-0.539c-0.489-0.799-1.338-1.378-2.341-1.378l-0.1,0.029l-0.624-0.349
			c-0.439-0.948-1.393-1.607-2.496-1.607l-0.3,0.05l-0.908-0.499c-0.39-0.929-1.318-1.598-2.401-1.598l-0.35,0.08l-0.439-0.25
			c-0.344-1.009-1.287-1.757-2.431-1.757c-0.194,0-0.369,0.06-0.554,0.1l-0.819-0.449c-0.324-0.948-1.192-1.657-2.246-1.657
			l-0.524,0.109l-0.918-0.499c-0.34-0.769-1.104-1.318-2.002-1.318l-0.279,0.051l-0.654-0.359c-0.244-0.929-1.073-1.628-2.071-1.628
			c-0.23,0-0.42,0.07-0.624,0.12l-0.37-0.199c-0.244-0.789-0.963-1.368-1.842-1.368l-0.459,0.079l-0.47-0.249
			c-0.234-0.769-0.908-1.338-1.747-1.338l-0.494,0.1l-0.324-0.18c-0.205-0.809-0.889-1.428-1.768-1.428
			c-0.204,0-0.399,0.05-0.584,0.12l-0.544-0.3c-0.165-0.688-0.764-1.218-1.513-1.218l-0.489,0.1l-2.261-1.248
			c0,0-5.541-2.346-3.23,0.969c0.255,0.379,1.113,1.049,2.392,1.977c0.114,0.77,0.738,1.378,1.548,1.378l0.294-0.06l0.52,0.359
			c0.114,0.918,0.868,1.637,1.802,1.637l0.459-0.09l0.38,0.25c0.234,0.769,0.908,1.338,1.757,1.338l0.185-0.03
			c0.215,0.14,0.439,0.28,0.664,0.43c0.274,0.769,0.974,1.317,1.832,1.317l0.13-0.02c0.215,0.14,0.409,0.27,0.614,0.399
			c0.294,0.889,1.093,1.567,2.076,1.567l0.255-0.05c0.225,0.14,0.449,0.3,0.694,0.459c0.279,0.869,1.083,1.528,2.066,1.528
			l0.234-0.061c0.319,0.22,0.645,0.42,0.953,0.619c0.345,0.918,1.214,1.588,2.247,1.588l0.175-0.03
			c0.339,0.21,0.684,0.429,1.023,0.648c0.354,1.009,1.298,1.737,2.431,1.737l0.244-0.04c0.186,0.12,0.38,0.24,0.574,0.359
			c0.39,0.959,1.318,1.628,2.401,1.628l0.115-0.021c0.314,0.19,0.624,0.39,0.918,0.569c0.399,1.049,1.383,1.807,2.566,1.807
			l0.234-0.039l0.439,0.279c0.429,0.998,1.412,1.697,2.556,1.697l0.135-0.02c0.265,0.169,0.509,0.318,0.769,0.488
			c0.449,1.099,1.533,1.897,2.82,1.897l0.175-0.04l0.449,0.279c0.43,1.088,1.473,1.837,2.686,1.877l0.115,0.38
			c-1.288,0.279-4.213,1.068-5.461,2.905c-1.633,2.396-2.566,4.153-4.068,4.303c0,0,1.248,2.347,5.806-1.487
			c4.272-3.595,7.238-0.22,7.607,0.229c0.085,0.229-0.335,0.12-0.993,0.779c-0.959,0.968-1.184,0.968-2.586,2.365
			c-1.388,1.398-1.288,1.827-2.995,3.654c-1.737,1.817-1.408,1.288-3.016,2.676c-1.612,1.418-3.12,2.047-4.193,3.664
			s-1.932,2.047-1.502,3.664c0.429,1.607-1.503,4.513,2.146,7.209c3.654,2.676,3.764,1.068,4.522,1.068
			c0.744,0,0.744,1.287,2.361,1.178c1.612-0.11,4.303-0.21,4.832-1.508c0.544-1.298,2.047-2.576,3.55-3.335
			c1.512-0.749,12.789-0.639,16.877-4.941c4.094-4.293,2.361-0.858,2.361-0.858s-1.502,8.396-4.078,12.689
			s-4.293,13.099-4.938,16.113c-0.653,3.006-2.371,19.988-2.585,21.936c-0.225,1.926-5.796,1.067-7.094,8.596
			c-1.298,7.537,0.429,21.086,0.429,21.086s-14.836-1.518-18.495-2.156c-3.659-0.649-7.737-0.43-9.245,2.795
			c-1.502,3.225-3.229,1.078-3.863,5.371c-0.654,4.304,1.277,5.152,1.707,7.738s1.513,10.312,1.513,14.187
			s-0.645,9.895,0.644,11.183c1.293,1.277,4.084-0.21,4.309,1.088c0.215,1.288,1.063,1.078,2.137,3.215
			c1.083,2.166,4.088,9.035,11.825,6.889c1.288-6.25-0.429-9.025-3.424-11.631c-1.942-0.43-2.371,0.439-2.371,0.439l-1.084-1.068
			c0,0,1.288-1.728,0.859-3.006c-0.43-1.298-4.294-2.805-5.581-7.967c-1.298-5.162,0-11.611-1.298-14.616
			c-1.288-3.005,6.244-2.796,7.308-2.576c1.083,0.2,9.68,9.465,20.652,7.309c2.79,1.518,7.308,5.381,7.308,5.381
			s-3.649,10.952-4.303,19.998c-2.791,1.487-2.156,5.151-2.576,7.089c-0.429,1.927-1.932,2.565-2.371,7.527
			c-0.43,4.922-1.288,6.45-2.576,9.455c-1.298,2.995-1.941,5.361-4.518,7.527c-2.581,2.146-4.941,1.927-5.596,3.864
			c-0.634,1.937-1.932,3.435-4.089,4.513c-2.136,1.078-4.937,4.723-5.795,7.527c-0.859,2.806,6.234,6.24,13.104,3.006
			c1.728-2.366,0.225-6.24,0.225-6.24s2.376,0,4.513-1.068c2.156-1.078,3.229-5.151,3.874-7.957
			c0.644-2.785,9.465-19.339,10.753-20.627c1.287-1.298,0.858-3.435,0.858-3.435l2.146-2.166c0,0,1.946-9.245,2.806-11.192
			c0.858-1.917,8.801-14.167,8.801-14.167s0-1.518,0.858-4.742c0.858-3.235,15.275,8.177,46.659-0.21
			c0,3.016-0.214,9.455,1.513,11.602c1.718,2.166,6.974,6.898,8.691,8.406c1.728,1.487,1.183,3.854,2.7,6.659
			c1.513,2.796,4.304,3.005,7.094,6.24c2.791,3.194,2.586,6.858,1.942,8.156c-0.654,1.299-15.91,14.397-17.208,15.695
			c-1.287,1.298-4.508,1.937-5.806,5.151c-1.287,3.225-5.151,3.654-5.151,3.654s-3.025,0.649-3.669,2.605
			c-0.634,1.917-3.01,6.439-2.356,8.367c0.645,1.946,11.392,0.858,13.119-1.278c1.717-2.167-0.645-6.46,0.215-6.669
			c0.858-0.22,1.922-0.22,1.922-0.22s5.601,1.068,6.889-1.927c1.278-3.025,0.873-3.884,0.873-3.884s12.665-9.885,15.455-10.743
			c2.811-0.868,8.621-4.941,9.266-7.088c0.644-2.177-1.073-5.602-3.245-8.178c-2.146-2.585-1.717-4.513-1.717-4.513
			s-1.063-10.742-1.288-12.919c-0.205-2.146,8.172,10.553,19.998,10.553c3.015,3.445,5.161,4.942,5.161,4.942l-12.685,13.748
			c0,0-4.088,0.648-5.581,4.104c-1.518,3.444,0.43,11.382-0.439,14.177c-0.849,2.796,7.309,4.313,9.885,6.03
			c3.015-4.083,3.015-11.401,1.513-12.04c-1.513-0.649-4.304,0-4.089-1.518c0.215-1.488,1.298-1.928,2.801-2.137
			c1.492-0.22,1.288-3.444,1.492-4.304c0.225-0.858,16.573-15.475,16.573-15.475l-2.8,6.649c-3.006,4.952-4.079,13.978-0.869,17.861
			c3.229,3.854,4.628,3.334,4.628,3.334s5.705,16.434,19.458,13.858c2.392-0.899,3.415-0.959,3.834-0.909
			c12.645,6.819,14.691-1.357,20.067-4.912c5.192-3.414,6.37,3.734,6.37,3.734S369.434,304.374,365.51,300.131 M303.011,240.606
			c-0.119,0.29-0.384,1.068-0.549,2.366c-0.205,2.376,0.09,5.422,0.09,5.871c0,0.419-0.539,1.008-1.238,1.008
			c-0.703,0.12-1.612-0.409-2.565-2.875l-0.01-0.03c-0.314-0.738-0.569-1.487-0.654-2.146c-0.284-1.667,0.664-1.728,2.396-2.605
			c1.327-0.799,2.605-1.737,2.605-1.737L303.011,240.606z M319.75,217.125c-0.983,3.334-9.15,9.903-7.208,5.93
			c1.951-3.983,0.114-14.846,0.114-14.846C317.917,202.628,320.723,213.81,319.75,217.125"/>
	</g>
	<polygon fill="#FFFFFF" points="336.597,173.385 339.438,168.074 344.615,165.768 339.438,163.042 336.872,156.643 
		334.276,162.762 329.115,164.949 334.151,167.934 	"/>
</g>
</svg>
